<?xml version="1.0" encoding="utf-8"?>
<!-- Generator: Adobe Illustrator 26.2.1, SVG Export Plug-In . SVG Version: 6.00 Build 0)  -->
<svg version="1.1" id="Layer_1" xmlns="http://www.w3.org/2000/svg" xmlns:xlink="http://www.w3.org/1999/xlink" x="0px" y="0px"
	 viewBox="0 0 841.9 595.3" style="enable-background:new 0 0 841.9 595.3;" xml:space="preserve">
<style type="text/css">
	.st0{fill:#020202;}
	.st1{fill:#040404;}
</style>
<path class="st0" d="M228.4,284.9c1.5-1.9,1.2-4.2,1.6-6.3c5.7-33.6,36.4-63.2,70.1-68c30.1-4.3,55.7,4.4,76.9,26.2
	c5.3,5.4,5.5,12.1,0.7,16.7c-4.7,4.6-11.3,4.3-16.4-1c-10.4-10.8-22.7-17.6-37.6-20c-24.3-3.8-49.8,7.7-62.8,28.5
	c-23.7,38.1-3.4,86.8,40.5,96.2c21.4,4.5,40.4-1.3,56.6-16.1c1.5-1.4,2.8-2.9,4.3-4.2c4.6-4.2,11.1-4.2,15.4-0.1
	c4.4,4.2,4.7,11,0.5,15.7c-10.8,12-23.9,20.3-39.4,24.9c-3.5,1-7,2-10.7,2.4c-1.9,0.2-2.7,0.9-2.7,3.1c0.1,10.6,0.1,21.2,0,31.8
	c0,2.1,0.6,2.8,2.8,2.8c6.6-0.1,13.1,0.2,19.7-0.1c9.1-0.4,13,5.9,13,11.1c0,5.6-4.3,11.6-12.9,11.3c-6.5-0.3-13.1,0-19.7-0.1
	c-2.4-0.1-3,0.7-2.9,3c0.1,6.3,0.1,12.6,0,18.9c-0.1,7-4.5,11.9-10.8,12.1c-6.5,0.2-11.3-4.7-11.4-11.9c-0.1-6.4-0.1-12.9,0-19.3
	c0-2.1-0.6-2.8-2.8-2.8c-6.9,0.1-13.9,0.1-20.8,0c-7-0.1-11.8-4.6-11.8-11c0-6.4,4.8-11,11.7-11.1c6.7-0.1,13.4-0.1,20.1,0
	c2.7,0.1,3.7-0.4,3.7-3.5c-0.2-10.2-0.2-20.4,0-30.6c0-2.5-0.8-3.2-3.1-3.6c-28.3-5.1-49-20.7-62.4-45.9c-4.3-8-6.8-16.8-8.3-25.8
	c-0.1-0.9,0.4-2.1-1-2.6C228.4,298.5,228.4,291.7,228.4,284.9z"/>
<path class="st0" d="M518.2,158.4c-5.1,5.2-10.3,10.4-15.4,15.6c-3.4,3.4-7.5,4.6-12.1,3c-7.4-2.6-10-11.9-4.5-17.6
	c10.8-11.3,21.9-22.4,33.3-33.1c6-5.7,15.5-5.7,21.5-0.1c11.5,10.8,22.5,22.1,33.5,33.4c4.1,4.2,3.4,11.1-0.8,15
	c-4.1,4-10.7,4.3-15.1,0.2c-4.8-4.4-9.3-9.2-14-13.8c-0.8-0.8-1.4-2.1-2.8-2.3c-0.7,0.8-0.3,1.7-0.3,2.5c0,15,0,30-0.1,45.1
	c0,2.7,0.7,3.5,3.4,4c30.9,6,52.6,23.5,65.2,52.3c13.7,31.5,4.7,71.7-20.7,94.8c-16.5,15.1-35.9,23.3-58.2,23.3
	c-26.4,0.1-48.5-10.2-66-30c-4-4.5-3.5-11.4,0.8-15.4c4.4-4.1,11.2-4.2,15.6,0.5c7.5,7.9,15.8,14.3,26,18.4
	c36.9,14.7,79.4-9.4,85.5-48.6c7.4-47.6-36.1-85.3-82.2-71.1c-10.9,3.4-20.2,9.6-27.8,18.2c-2.9,3.3-6.4,5.5-10.9,4.8
	c-4.3-0.6-7.5-3-8.9-7.2c-1.5-4.1-0.8-8,2.1-11.3c9.1-10.4,20-18.3,32.9-23.6c6.1-2.5,12.4-4.2,18.9-5.2c1.4-0.2,2.3-0.4,2.3-2.2
	c0-16.4,0-32.7,0-49.1C518.8,158.6,518.5,158.5,518.2,158.4z"/>
<path class="st1" d="M423.8,260c9.2,0,18.4-0.1,27.6,0c5.3,0.1,9.5,3.1,11,7.7c1.5,4.6-0.1,9.6-3.9,12.5c-2.2,1.7-4.8,2.3-7.5,2.3
	c-18.2,0-36.3,0.1-54.5,0c-7.2,0-12.1-4.7-12.1-11.2c0-6.5,4.9-11.1,12.1-11.2C405.6,259.9,414.7,260,423.8,260z"/>
<path class="st0" d="M423.7,326.6c-9.6,0-19.2,0.1-28.7,0c-5.5-0.1-9.8-4.3-10.5-9.6c-0.6-5.2,2.4-10.1,7.3-11.8
	c1.2-0.4,2.5-0.6,3.7-0.6c18.8,0,37.6-0.1,56.3,0c6,0,10.2,4,11,9.8c0.7,5.1-2.7,10.3-7.9,11.8c-1.5,0.4-3.2,0.5-4.9,0.5
	C441.3,326.7,432.5,326.6,423.7,326.6C423.7,326.6,423.7,326.6,423.7,326.6z"/>
</svg>
